<svg fill="none" height="32" viewBox="0 0 107 32" width="107" xmlns="http://www.w3.org/2000/svg" xmlns:xlink="http://www.w3.org/1999/xlink"><linearGradient id="a" gradientUnits="userSpaceOnUse" x1="-.286957" x2="32.287" y1="16.2957" y2="15.7"><stop offset="0" stop-color="#29ccb9"/><stop offset=".49" stop-color="#0091ff"/><stop offset="1" stop-color="#ff66b7"/></linearGradient><path clip-rule="evenodd" d="m7.43913 27.4739c-3.4913-2.6087-5.75652-6.7782-5.75652-11.4739 0-7.90435 6.41304-14.31739 14.31739-14.31739 6.5261 0 13.6522 3.9 15.3739 9.87389-1.9261-6.67389-8.0782-11.5565-15.3739-11.5565-8.83478 0-16 7.16522-16 16 0 8.8348 7.16522 16 16 16 8.8348 0 16-7.1652 16-16v-.8435h-.8783c-.026 0-.0652 0-.1174 0-.1043 0-.2521-.0043-.4434-.013-.3783-.0131-.9-.0392-1.487-.0913-1.2-.1044-2.5696-.3087-3.5-.6826-1.5-.6-2.3478-1.3913-3.313-2.3218l-.0566-.0521c-.9695-.9305-2.0565-1.9783-3.9478-2.86527-1.8608-.87391-3.9174-.73478-5.4261-.42173-.7652.15652-1.4261.36521-1.8913.53478-.2348.08261-.4217.16087-.5521.21304-.76091.32174-1.50004.69998-2.24352 1.05218 0 0 1.46522.4 2.18692.6261.0261.0087.0653.0217.1218.0391.1087.0348.2652.0913.4521.1696.3827.1565.8827.3869 1.3783.7087.7826.5 1.4304 1.1348 1.6957 1.9087-1.6566.2174-3.2131.9478-4.3783 1.6304-.70435.413-1.2913.8304-1.70435 1.1391-.20435.1566-.36956.287-.48261.3783-.09565.0783-1.5913 1.3956-1.5913 1.3956s1.93043.2044 2.88261.3957c.63478.1261 1.48695.3348 2.38265.6435.8956.313 1.8.7217 2.5521 1.2478.7522.5261 1.3044 1.1304 1.5739 1.8261.7913 2.0261.0131 3.9956-1.5478 5.1043-1.5435 1.0957-3.88694 1.3566-6.23042-.2521zm5.46087 2.5044c.6304-.2044 1.2174-.5044 1.7478-.8783 2.1218-1.5087 3.2392-4.2739 2.1392-7.0913-.4348-1.1087-1.2609-1.9522-2.1783-2.5957-.9217-.6434-1.9783-1.113-2.9609-1.4565-.6435-.2261-1.2695-.4-1.81302-.5304.19562-.1261.40002-.2565.62172-.387 1.2957-.7608 2.9305-1.4608 4.4957-1.4608 2.3608 0 4.1174.726 5.7956 1.5.1522.0695.3044.1434.4609.213 1.5.7044 3.0739 1.4435 4.9043 1.4435 1.8305 0 3.1566-.5 4.1087-1.0218-.8478 7.0957-6.8869 12.6-14.213 12.6-1.0652 0-2.1044-.1173-3.1-.3347zm15.4957-13.2957c-.6305.2131-1.3957.3696-2.287.3696-1.4348 0-2.6696-.5739-4.2348-1.3044-.1391-.0652-.2782-.1304-.4217-.1956-1.5696-.7261-3.3826-1.4957-5.7435-1.6348-.3174-1.5609-1.5-2.6304-2.5174-3.2826-.113-.0739-.2261-.1435-.3391-.2087.1-.0218.2043-.0478.313-.0696 1.3652-.2826 2.9913-.3522 4.3696.3 1.6348.7696 2.5609 1.6565 3.5217 2.5783l.0348.0304c.987.9478 2.0348 1.9435 3.8565 2.6739 1.0131.4044 2.3261.6218 3.4479.7435z" fill="url(#a)" fill-rule="evenodd"/><g fill="#151522"><path d="m42.3565 12.5525v-9.45216h1.8087l1.5652 3.79565 1.5652-3.79565h1.8087v9.45216h-1.4174v-7.2652l-1.9696 4.68261-1.9695-4.68261v7.2652z"/><path d="m51.2521 12.5525 2.9696-9.45216h1.9174l2.9696 9.45216h-1.6479l-.6869-2.2826h-3.2522l-.6739 2.2826h-1.5913zm2.6305-3.53911h2.5391l-1.2696-4.2z"/><path d="m61.4304 12.5525v-9.45216h1.6348l3.4174 6.61305-.0261-6.61305h1.3782v9.45216h-1.5l-3.5521-6.83042.0261 6.83042z"/><path d="m73.2695 12.5525v-8.0739h-2.9304v-1.37826h7.4782v1.37826h-2.9304v8.0739h-1.6217z"/><path d="m79.6043 12.5525 2.9696-9.45216h1.9174l2.9695 9.45216h-1.6478l-.687-2.2826h-3.2521l-.6739 2.2826h-1.5913zm2.6304-3.53911h2.5392l-1.2696-4.2z"/><path d="m42.5304 28.7525v-9.4522h1.6348l3.4174 6.613-.0261-6.613h1.3782v9.4522h-1.5l-3.5521-6.8305.0261 6.8305z"/><path d="m52.3043 28.7525v-9.4522h6.1826v1.3783h-4.5652v2.6347h2.9565v1.3479h-2.9565v2.713h4.6174v1.3783h-6.2391z"/><path d="m63.8217 28.7525v-8.0739h-2.9304v-1.3783h7.4782v1.3783h-2.9304v8.0739h-1.6218z"/><path d="m71.3695 28.7525-1.1087-9.4522h1.4305l.5956 6.2391 1.2131-6.2391h1.213l1.213 6.1826.5957-6.1826h1.3783l-1.0957 9.4522h-1.4565l-1.2565-6.6696-1.2696 6.6696h-1.4565z"/><path d="m83.5304 28.9003c-.6652 0-1.2783-.1913-1.8348-.5653-.5565-.3782-1.0044-.9304-1.3348-1.6521-.3348-.7261-.5-1.6087-.5-2.6522s.1652-1.9304.5-2.6522c.3348-.7261.7783-1.2739 1.3348-1.6522.5565-.3782 1.1696-.5652 1.8348-.5652s1.2739.1913 1.8304.5652c.5522.3783 1 .9305 1.3348 1.6522.3391.7261.5043 1.6087.5043 2.6522s-.1695 1.9304-.5043 2.6522c-.3391.7261-.7826 1.2739-1.3348 1.6521-.5522.3783-1.1652.5653-1.8304.5653zm0-1.4566c.3782 0 .7217-.126 1.0348-.3869.3087-.2565.5565-.6391.7347-1.1478.1783-.5087.2696-1.1348.2696-1.8826 0-.7479-.0913-1.374-.2696-1.8783-.1782-.5044-.426-.887-.7347-1.1478-.3087-.2609-.6566-.3913-1.0348-.3913-.3783 0-.7218.1304-1.0348.3913-.3087.2608-.5565.6434-.7348 1.1478-.1782.5043-.2696 1.1304-.2696 1.8783 0 .7478.0914 1.3739.2696 1.8826.1783.5087.4261.8913.7348 1.1478s.6565.3869 1.0348.3869z"/><path d="m90.0391 28.7525v-9.4522h3.213c.6305 0 1.1826.1174 1.6522.3565.4739.2391.8391.5696 1.1087 1 .2652.4261.4.9261.4 1.4913 0 .6218-.1609 1.1565-.487 1.6044-.3261.4521-.7652.7782-1.3217.9869l2.0652 4.0087h-1.7435l-1.8782-3.7782h-1.3913v3.7782h-1.6218zm1.6217-5.0739h1.4565c.5044 0 .9044-.1392 1.2087-.4131.3-.2739.4522-.6348.4522-1.0869 0-.4522-.1522-.8261-.4522-1.1-.3-.274-.7043-.4131-1.2087-.4131h-1.4565v3.0087z"/><path d="m99.3391 28.7525v-9.4522h1.6219v4.2261l3.387-4.2261h1.848l-3.809 4.5783 3.983 4.8739h-2.04l-3.374-4.3218v4.3218h-1.6213z"/></g></svg>