<svg xmlns="http://www.w3.org/2000/svg" width="71" height="71" viewBox="0 0 71 71"><g id="Group_46" data-name="Group 46" transform="translate(0.5 0.5)"><path id="Ellipse_6" data-name="Ellipse 6" d="M0,35A35,35,0,1,1,35,70,35,35,0,0,1,0,35Z" fill="none" stroke="#0074ff" stroke-width="1" style="isolation: isolate"></path><g id="Group_39548" data-name="Group 39548" transform="translate(49.476 44.902) rotate(-180)" style="isolation: isolate"><path id="Vector" d="M.478,10.678a1.541,1.541,0,0,1,0-2.231L8.447.478a1.541,1.541,0,0,1,2.231,0,1.541,1.541,0,0,1,0,2.231L2.709,10.678a1.447,1.447,0,0,1-1.116.478A1.447,1.447,0,0,1,.478,10.678Z" transform="translate(17.532 7.969)" fill="#fff" style="isolation: isolate"></path><path id="Vector-2" data-name="Vector" d="M8.447,10.678.478,2.709a1.541,1.541,0,0,1,0-2.231,1.541,1.541,0,0,1,2.231,0l7.969,7.969a1.541,1.541,0,0,1,0,2.231,1.541,1.541,0,0,1-2.231,0Z" transform="translate(17.532 0)" fill="#fff" style="isolation: isolate"></path><path id="Vector-3" data-name="Vector" d="M1.594,3.187A1.506,1.506,0,0,1,0,1.594,1.506,1.506,0,0,1,1.594,0h25.5a1.506,1.506,0,0,1,1.594,1.594,1.506,1.506,0,0,1-1.594,1.594Z" transform="translate(0 7.969)" fill="#fff" style="isolation: isolate"></path></g></g></svg>