<svg xmlns="http://www.w3.org/2000/svg" width="70" height="70" viewBox="0 0 70 70"><g id="Group_47" data-name="Group 47" transform="translate(-89.804)"><g id="Ellipse_6" data-name="Ellipse 6" transform="translate(89.804)" fill="none" style="isolation: isolate"><path d="M0,35A35,35,0,1,1,35,70,35,35,0,0,1,0,35Z" stroke="none"></path><path d="M 35 1 C 30.40958023071289 1 25.95700073242188 1.898811340332031 21.76596069335938 3.671470642089844 C 17.71738052368164 5.383872985839844 14.08118057250977 7.835540771484375 10.95835876464844 10.95835876464844 C 7.835540771484375 14.08118057250977 5.383872985839844 17.71738052368164 3.671470642089844 21.76596069335938 C 1.898811340332031 25.95700073242188 1 30.40958023071289 1 35 C 1 39.59041976928711 1.898811340332031 44.04299926757812 3.671470642089844 48.23403930664062 C 5.383872985839844 52.28261947631836 7.835540771484375 55.91881942749023 10.95835876464844 59.04164123535156 C 14.08118057250977 62.16445922851562 17.71738052368164 64.61612701416016 21.76596069335938 66.32852935791016 C 25.95700073242188 68.10118865966797 30.40958023071289 69 35 69 C 39.59041976928711 69 44.04299926757812 68.10118865966797 48.23403930664062 66.32852935791016 C 52.28261947631836 64.61612701416016 55.91881942749023 62.16445922851562 59.04164123535156 59.04164123535156 C 62.16445922851562 55.91881942749023 64.61612701416016 52.28261947631836 66.32852935791016 48.23403930664062 C 68.10118865966797 44.04299926757812 69 39.59041976928711 69 35 C 69 30.40958023071289 68.10118865966797 25.95700073242188 66.32852935791016 21.76596069335938 C 64.61612701416016 17.71738052368164 62.16445922851562 14.08118057250977 59.04164123535156 10.95835876464844 C 55.91881942749023 7.835540771484375 52.28261947631836 5.383872985839844 48.23403930664062 3.671470642089844 C 44.04299926757812 1.898811340332031 39.59041976928711 1 35 1 M 35 0 C 54.33000183105469 0 70 15.66999816894531 70 35 C 70 54.33000183105469 54.33000183105469 70 35 70 C 15.66999816894531 70 0 54.33000183105469 0 35 C 0 15.66999816894531 15.66999816894531 0 35 0 Z" stroke="none" fill="#0074ff"></path></g><g id="Group_39548" data-name="Group 39548" transform="translate(110.591 25.777)" style="isolation: isolate"><path id="Vector" d="M.478,10.678a1.541,1.541,0,0,1,0-2.231L8.447.478a1.541,1.541,0,0,1,2.231,0,1.541,1.541,0,0,1,0,2.231L2.709,10.678a1.447,1.447,0,0,1-1.116.478A1.447,1.447,0,0,1,.478,10.678Z" transform="translate(17.532 7.969)" fill="#fff" style="isolation: isolate"></path><path id="Vector-2" data-name="Vector" d="M8.447,10.678.478,2.709a1.541,1.541,0,0,1,0-2.231,1.541,1.541,0,0,1,2.231,0l7.969,7.969a1.541,1.541,0,0,1,0,2.231,1.541,1.541,0,0,1-2.231,0Z" transform="translate(17.532 0)" fill="#fff" style="isolation: isolate"></path><path id="Vector-3" data-name="Vector" d="M1.594,3.187A1.506,1.506,0,0,1,0,1.594,1.506,1.506,0,0,1,1.594,0h25.5a1.506,1.506,0,0,1,1.594,1.594,1.506,1.506,0,0,1-1.594,1.594Z" transform="translate(0 7.969)" fill="#fff" style="isolation: isolate"></path></g></g></svg>