<svg xmlns="http://www.w3.org/2000/svg" width="105" height="105" viewBox="0 0 105 105"><g id="Group_46" data-name="Group 46" transform="translate(-932 -2659.845)"><g id="Union_6" data-name="Union 6" transform="translate(-8702 -1962.155)" fill="rgba(255,255,255,0.07)"><path d="M9686.5,4622a52.5,52.5,0,1,1-52.5,52.5A52.5,52.5,0,0,1,9686.5,4622Z" stroke="none"></path><path d="M 9686.5 4626 C 9679.951171875 4626 9673.599609375 4627.28173828125 9667.623046875 4629.8095703125 C 9661.84765625 4632.25244140625 9656.6611328125 4635.75 9652.205078125 4640.205078125 C 9647.75 4644.66064453125 9644.251953125 4649.84765625 9641.8095703125 4655.62255859375 C 9639.2822265625 4661.599609375 9638 4667.95068359375 9638 4674.5 C 9638 4681.04931640625 9639.2822265625 4687.400390625 9641.8095703125 4693.37744140625 C 9644.251953125 4699.15234375 9647.75 4704.33935546875 9652.205078125 4708.794921875 C 9656.6611328125 4713.25 9661.84765625 4716.74755859375 9667.623046875 4719.1904296875 C 9673.599609375 4721.71826171875 9679.951171875 4723 9686.5 4723 C 9693.048828125 4723 9699.400390625 4721.71826171875 9705.376953125 4719.1904296875 C 9711.15234375 4716.74755859375 9716.3388671875 4713.25 9720.794921875 4708.794921875 C 9725.25 4704.33935546875 9728.748046875 4699.15234375 9731.1904296875 4693.37744140625 C 9733.7177734375 4687.400390625 9735 4681.04931640625 9735 4674.5 C 9735 4667.95068359375 9733.7177734375 4661.599609375 9731.1904296875 4655.62255859375 C 9728.748046875 4649.84765625 9725.25 4644.66064453125 9720.794921875 4640.205078125 C 9716.3388671875 4635.75 9711.15234375 4632.25244140625 9705.376953125 4629.8095703125 C 9699.400390625 4627.28173828125 9693.048828125 4626 9686.5 4626 M 9686.5 4622 C 9715.4951171875 4622 9739 4645.5048828125 9739 4674.5 C 9739 4703.4951171875 9715.4951171875 4727 9686.5 4727 C 9657.5048828125 4727 9634 4703.4951171875 9634 4674.5 C 9634 4645.5048828125 9657.5048828125 4622 9686.5 4622 Z" stroke="none" fill="rgba(255,255,255,0.06)"></path></g><g id="Group_22" data-name="Group 22" transform="translate(925.893 2669.318)"><path id="Path_22" data-name="Path 22" d="M105.289,12l7.495,7.652L93.912,38.468,86.417,31Z" transform="translate(-45.041)" fill="#fff"></path><path id="Path_23" data-name="Path 23" d="M116.667,68.25l7.495,7.652-30.25,30.159-7.495-7.472Z" transform="translate(-45.041 -44.906)" fill="#fff"></path><path id="Path_24" data-name="Path 24" d="M37.493,124.5l7.495,7.652-7.495,7.472L30,132.152Z" transform="translate(0 -89.813)" fill="#fff"></path><path id="Path_25" data-name="Path 25" d="M173.086,124.5l7.495,7.652-30.25,30.159-7.495-7.472Z" transform="translate(-90.083 -89.813)" fill="#fff"></path></g></g></svg>