<svg xmlns="http://www.w3.org/2000/svg" width="105" height="105" viewBox="0 0 105 105"><g id="Group_53" data-name="Group 53" transform="translate(-1231.414 -6160)"><g id="Union_22" data-name="Union 22" transform="translate(-8402.586 1538)" fill="rgba(193,193,193,0.14)"><path d="M9686.5,4622a52.5,52.5,0,1,1-52.5,52.5A52.5,52.5,0,0,1,9686.5,4622Z" stroke="none"></path><path d="M 9686.5 4626 C 9679.951171875 4626 9673.599609375 4627.28173828125 9667.623046875 4629.8095703125 C 9661.84765625 4632.25244140625 9656.6611328125 4635.75 9652.205078125 4640.205078125 C 9647.75 4644.66064453125 9644.251953125 4649.84765625 9641.8095703125 4655.62255859375 C 9639.2822265625 4661.599609375 9638 4667.95068359375 9638 4674.5 C 9638 4681.04931640625 9639.2822265625 4687.400390625 9641.8095703125 4693.37744140625 C 9644.251953125 4699.15234375 9647.75 4704.33935546875 9652.205078125 4708.794921875 C 9656.6611328125 4713.25 9661.84765625 4716.74755859375 9667.623046875 4719.1904296875 C 9673.599609375 4721.71826171875 9679.951171875 4723 9686.5 4723 C 9693.048828125 4723 9699.400390625 4721.71826171875 9705.376953125 4719.1904296875 C 9711.15234375 4716.74755859375 9716.3388671875 4713.25 9720.794921875 4708.794921875 C 9725.25 4704.33935546875 9728.748046875 4699.15234375 9731.1904296875 4693.37744140625 C 9733.7177734375 4687.400390625 9735 4681.04931640625 9735 4674.5 C 9735 4667.95068359375 9733.7177734375 4661.599609375 9731.1904296875 4655.62255859375 C 9728.748046875 4649.84765625 9725.25 4644.66064453125 9720.794921875 4640.205078125 C 9716.3388671875 4635.75 9711.15234375 4632.25244140625 9705.376953125 4629.8095703125 C 9699.400390625 4627.28173828125 9693.048828125 4626 9686.5 4626 M 9686.5 4622 C 9715.4951171875 4622 9739 4645.5048828125 9739 4674.5 C 9739 4703.4951171875 9715.4951171875 4727 9686.5 4727 C 9657.5048828125 4727 9634 4703.4951171875 9634 4674.5 C 9634 4645.5048828125 9657.5048828125 4622 9686.5 4622 Z" stroke="none" fill="rgba(255,255,255,0.06)"></path></g><path id="ic-instagram" d="M22.13,40.265H18.124c-1.9,0-4.114-.01-6.3-.134-3.774-.182-6.377-1.183-8.441-3.247S.316,32.215.133,28.441C0,26,0,23.526,0,21.133c0-.337,0-.668,0-1s0-.663,0-.993c0-2.4-.005-4.871.132-7.319C.316,8.047,1.317,5.445,3.381,3.381S8.048.316,11.822.134C14.006.011,16.219,0,18.122,0h4.016c1.9,0,4.116.011,6.3.134,3.777.182,6.38,1.184,8.441,3.247s3.067,4.668,3.25,8.441c.137,2.441.135,4.912.132,7.3,0,.342,0,.676,0,1.011q0,.533,0,1.068c0,2.375.006,4.823-.132,7.239-.183,3.774-1.185,6.379-3.25,8.443s-4.667,3.065-8.441,3.247C26.257,40.255,24.038,40.265,22.13,40.265ZM20.123,9.808A10.335,10.335,0,1,0,30.457,20.142,10.346,10.346,0,0,0,20.123,9.808ZM30.879,6.969a2.412,2.412,0,1,0,0,4.823H30.9a2.331,2.331,0,0,0,.9-.181,2.482,2.482,0,0,0,.784-.523,2.41,2.41,0,0,0,.521-.784,2.38,2.38,0,0,0,.183-.923A2.415,2.415,0,0,0,30.879,6.969ZM20.123,26.848a6.707,6.707,0,1,1,6.709-6.706A6.714,6.714,0,0,1,20.123,26.848Z" transform="translate(1265.738 6192)" fill="#9f9f9f"></path></g></svg>