<svg xmlns="http://www.w3.org/2000/svg" width="105" height="105" viewBox="0 0 105 105"><g id="Group_49" data-name="Group 49" transform="translate(5809 1953.155)"><g id="Union_8" data-name="Union 8" transform="translate(-15443 -6575.155)" fill="rgba(255,255,255,0.07)"><path d="M9686.5,4622a52.5,52.5,0,1,1-52.5,52.5A52.5,52.5,0,0,1,9686.5,4622Z" stroke="none"></path><path d="M 9686.5 4626 C 9679.951171875 4626 9673.599609375 4627.28173828125 9667.623046875 4629.8095703125 C 9661.84765625 4632.25244140625 9656.6611328125 4635.75 9652.205078125 4640.205078125 C 9647.75 4644.66064453125 9644.251953125 4649.84765625 9641.8095703125 4655.62255859375 C 9639.2822265625 4661.599609375 9638 4667.95068359375 9638 4674.5 C 9638 4681.04931640625 9639.2822265625 4687.400390625 9641.8095703125 4693.37744140625 C 9644.251953125 4699.15234375 9647.75 4704.33935546875 9652.205078125 4708.794921875 C 9656.6611328125 4713.25 9661.84765625 4716.74755859375 9667.623046875 4719.1904296875 C 9673.599609375 4721.71826171875 9679.951171875 4723 9686.5 4723 C 9693.048828125 4723 9699.400390625 4721.71826171875 9705.376953125 4719.1904296875 C 9711.15234375 4716.74755859375 9716.3388671875 4713.25 9720.794921875 4708.794921875 C 9725.25 4704.33935546875 9728.748046875 4699.15234375 9731.1904296875 4693.37744140625 C 9733.7177734375 4687.400390625 9735 4681.04931640625 9735 4674.5 C 9735 4667.95068359375 9733.7177734375 4661.599609375 9731.1904296875 4655.62255859375 C 9728.748046875 4649.84765625 9725.25 4644.66064453125 9720.794921875 4640.205078125 C 9716.3388671875 4635.75 9711.15234375 4632.25244140625 9705.376953125 4629.8095703125 C 9699.400390625 4627.28173828125 9693.048828125 4626 9686.5 4626 M 9686.5 4622 C 9715.4951171875 4622 9739 4645.5048828125 9739 4674.5 C 9739 4703.4951171875 9715.4951171875 4727 9686.5 4727 C 9657.5048828125 4727 9634 4703.4951171875 9634 4674.5 C 9634 4645.5048828125 9657.5048828125 4622 9686.5 4622 Z" stroke="none" fill="rgba(255,255,255,0.06)"></path></g><path id="Path_31" data-name="Path 31" d="M101.619,21.509,99.5,19.788l-.988,2.548c-.019.049-1.916,4.846-4.83,3.972a2.063,2.063,0,0,1-1.361-1.175c-.724-1.55-.416-4.355.784-7.147,1.659-3.86.933-7.906-2.1-11.7A21.31,21.31,0,0,0,86.2,1.938L83.091,0l.069,3.661c0,.065.068,6.569-4.748,8.954a11.272,11.272,0,0,0-5.947,6.805,10.442,10.442,0,0,0,.954,8.214,3.169,3.169,0,0,1,.529,2.561,3.089,3.089,0,0,1-1.753,1.61c-3.443,1.383-5.7-3.233-5.787-3.424l-1.57-3.352-1.924,3.162A26.042,26.042,0,0,0,84.865,67.74q.156,0,.312,0h0a26.04,26.04,0,0,0,16.442-46.235ZM77.033,55.628V55.6a14.98,14.98,0,0,1,.9-5.057l4.9,1.431.049-2.6a9.642,9.642,0,0,1,4.112-7.741,17.913,17.913,0,0,0,2.167,5.4c1.129,1.842,2.2,3.4,3.184,4.815a6.7,6.7,0,0,1,.986,3.764v.01a8.142,8.142,0,0,1-8.146,8.142h0a8.155,8.155,0,0,1-8.144-8.144Zm19.076,5.242A12.064,12.064,0,0,0,97.3,55.634a10.565,10.565,0,0,0-1.7-6.051c-1.1-1.574-2.04-2.962-3.054-4.616a15.483,15.483,0,0,1-2.078-6.655L90.2,35.741l-2.417.915a14.966,14.966,0,0,0-4.373,2.8,13.386,13.386,0,0,0-4.232,7.32l-3.55-1.038-.7,1.6a20.194,20.194,0,0,0-1.866,8.306,12.042,12.042,0,0,0,1.2,5.235,22.075,22.075,0,0,1-9.4-27.8c.176.2.364.39.563.582a7.429,7.429,0,0,0,8.254,1.832,6.851,6.851,0,0,0,4.027-4,6.888,6.888,0,0,0-.844-5.845,6.37,6.37,0,0,1-.591-5.078,7.347,7.347,0,0,1,3.908-4.395A12.642,12.642,0,0,0,86.662,7.4a15.444,15.444,0,0,1,1.3,1.439c2.041,2.587,2.544,5.136,1.5,7.576-1.677,3.9-1.951,7.788-.734,10.4a6.015,6.015,0,0,0,3.819,3.3c2.726.818,5.391-.134,7.506-2.68a12.925,12.925,0,0,0,.878-1.194,22.063,22.063,0,0,1-4.815,34.631Z" transform="translate(-5841.678 -1934.527)" fill="#fff"></path></g></svg>