<svg xmlns="http://www.w3.org/2000/svg" width="105" height="105" viewBox="0 0 105 105"><g id="Group_50" data-name="Group 50" transform="translate(-857.604 -6160)"><g id="Union_19" data-name="Union 19" transform="translate(-8776.396 1538)" fill="rgba(193,193,193,0.14)"><path d="M9686.5,4622a52.5,52.5,0,1,1-52.5,52.5A52.5,52.5,0,0,1,9686.5,4622Z" stroke="none"></path><path d="M 9686.5 4626 C 9679.951171875 4626 9673.599609375 4627.28173828125 9667.623046875 4629.8095703125 C 9661.84765625 4632.25244140625 9656.6611328125 4635.75 9652.205078125 4640.205078125 C 9647.75 4644.66064453125 9644.251953125 4649.84765625 9641.8095703125 4655.62255859375 C 9639.2822265625 4661.599609375 9638 4667.95068359375 9638 4674.5 C 9638 4681.04931640625 9639.2822265625 4687.400390625 9641.8095703125 4693.37744140625 C 9644.251953125 4699.15234375 9647.75 4704.33935546875 9652.205078125 4708.794921875 C 9656.6611328125 4713.25 9661.84765625 4716.74755859375 9667.623046875 4719.1904296875 C 9673.599609375 4721.71826171875 9679.951171875 4723 9686.5 4723 C 9693.048828125 4723 9699.400390625 4721.71826171875 9705.376953125 4719.1904296875 C 9711.15234375 4716.74755859375 9716.3388671875 4713.25 9720.794921875 4708.794921875 C 9725.25 4704.33935546875 9728.748046875 4699.15234375 9731.1904296875 4693.37744140625 C 9733.7177734375 4687.400390625 9735 4681.04931640625 9735 4674.5 C 9735 4667.95068359375 9733.7177734375 4661.599609375 9731.1904296875 4655.62255859375 C 9728.748046875 4649.84765625 9725.25 4644.66064453125 9720.794921875 4640.205078125 C 9716.3388671875 4635.75 9711.15234375 4632.25244140625 9705.376953125 4629.8095703125 C 9699.400390625 4627.28173828125 9693.048828125 4626 9686.5 4626 M 9686.5 4622 C 9715.4951171875 4622 9739 4645.5048828125 9739 4674.5 C 9739 4703.4951171875 9715.4951171875 4727 9686.5 4727 C 9657.5048828125 4727 9634 4703.4951171875 9634 4674.5 C 9634 4645.5048828125 9657.5048828125 4622 9686.5 4622 Z" stroke="none" fill="rgba(255,255,255,0.06)"></path></g><g id="layer1" transform="translate(886.367 6192)"><path id="path1009" d="M281.6,167.31l16.61,22.209L281.5,207.576h3.762L299.9,191.767l11.824,15.809h12.8l-17.545-23.459,15.558-16.808h-3.762L305.3,181.87l-10.889-14.56Zm5.532,2.771h5.881L318.989,204.8h-5.882Z" transform="translate(-281.5 -167.31)" fill="#9f9f9f"></path></g></g></svg>